<?xml version="1.0" encoding="UTF-8" standalone="no" ?>
<!DOCTYPE svg PUBLIC "-//W3C//DTD SVG 1.1//EN" "http://www.w3.org/Graphics/SVG/1.1/DTD/svg11.dtd">
<svg xmlns="http://www.w3.org/2000/svg" xmlns:xlink="http://www.w3.org/1999/xlink" version="1.1" width="1080" height="1080" viewBox="0 0 1080 1080" xml:space="preserve">
<desc>Created with Fabric.js 5.2.4</desc>
<defs>
</defs>
<g transform="matrix(1 0 0 1 540 540)" id="c18f2351-6216-4b64-9813-2773752cd3ca"  >
<rect style="stroke: none; stroke-width: 1; stroke-dasharray: none; stroke-linecap: butt; stroke-dashoffset: 0; stroke-linejoin: miter; stroke-miterlimit: 4; fill: rgb(255,255,255); fill-rule: nonzero; opacity: 1; visibility: hidden;" vector-effect="non-scaling-stroke"  x="-540" y="-540" rx="0" ry="0" width="1080" height="1080" />
</g>
<g transform="matrix(1 0 0 1 540 540)" id="4df27467-86da-4204-adbe-42963856e404"  >
</g>
<g transform="matrix(29.19 0 0 29.19 520.66 540)"  >
<g style=""   >
		<g transform="matrix(1 0 0 1 -8.89 4.74)"  >
<path style="stroke: none; stroke-width: 1; stroke-dasharray: none; stroke-linecap: butt; stroke-dashoffset: 0; stroke-linejoin: miter; stroke-miterlimit: 4; fill: rgb(255,109,0); fill-rule: nonzero; opacity: 1;" vector-effect="non-scaling-stroke"  transform=" translate(-9.61, -26.74)" d="M 17.0408 9.63014 L 2.23935 13.648 C 1.59798 13.8226 1.03117 14.2062 0.626441 14.7396 C 0.22171 15.2731 0.00156723 15.9266 1.09908e-9 16.5994 L 1.09908e-9 33.7413 C -0.0000143047 34.2786 0.139626 34.8064 0.404877 35.2717 C 0.670128 35.7369 1.05163 36.1232 1.51102 36.3917 L 13.9624 43.6719 C 14.2131 43.8187 14.4962 43.8992 14.7856 43.9062 C 15.075 43.9131 15.3616 43.8462 15.6188 43.7116 C 15.876 43.5769 16.0957 43.379 16.2577 43.1358 C 16.4196 42.8927 16.5186 42.6122 16.5455 42.3201 L 19.2083 11.4797 C 19.2338 11.1989 19.1919 10.916 19.0862 10.6552 C 18.9805 10.3943 18.8141 10.1632 18.6012 9.98153 C 18.3884 9.79988 18.1353 9.67305 17.8636 9.61186 C 17.5919 9.55068 17.3096 9.55695 17.0408 9.63014 Z" stroke-linecap="round" />
</g>
		<g transform="matrix(1 0 0 1 9.82 -0.2)"  >
<path style="stroke: none; stroke-width: 1; stroke-dasharray: none; stroke-linecap: butt; stroke-dashoffset: 0; stroke-linejoin: miter; stroke-miterlimit: 4; fill: rgb(255,87,34); fill-rule: nonzero; opacity: 1;" vector-effect="non-scaling-stroke"  transform=" translate(-28.32, -21.8)" d="M 23.4791 5.0455 L 20.3134 41.7002 C 20.286 42.0189 20.3455 42.3391 20.4852 42.626 C 20.625 42.9128 20.8397 43.1554 21.106 43.3272 C 21.3724 43.499 21.6801 43.5936 21.9958 43.6006 C 22.3115 43.6076 22.623 43.5267 22.8965 43.3668 L 34.8215 36.3916 C 35.2817 36.1236 35.6639 35.7376 35.9299 35.2723 C 36.1958 34.807 36.3361 34.2789 36.3364 33.7412 L 36.3364 1.74974 C 36.3365 1.4814 36.2757 1.21664 36.1586 0.975951 C 36.0415 0.735257 35.8713 0.525081 35.6612 0.361685 C 35.4511 0.198288 35.2067 0.0860536 34.9469 0.0336632 C 34.6872 -0.0187271 34.419 -0.00986793 34.1631 0.0595555 L 25.7068 2.35576 C 25.1078 2.51795 24.5725 2.86315 24.1739 3.3444 C 23.7753 3.82566 23.5327 4.41962 23.4791 5.0455 Z" stroke-linecap="round" />
</g>
</g>
</g>
</svg>